<svg data-v-0dd9719b="" version="1.0" xmlns="http://www.w3.org/2000/svg" xmlns:xlink="http://www.w3.org/1999/xlink" width="100%" height="100%" viewBox="0 0 340.000000 250.000000" preserveAspectRatio="xMidYMid meet" color-interpolation-filters="sRGB" style="margin: auto;"> <rect data-v-0dd9719b="" x="0" y="0" width="100%" height="100%" fill="#fff" fill-opacity="1" class="background"></rect> <rect data-v-0dd9719b="" x="0" y="0" width="100%" height="100%" fill="url(#watermark)" fill-opacity="1" class="watermarklayer"></rect> <g data-v-0dd9719b="" fill="#adadad" class="icon-text-wrapper icon-svg-group iconsvg" transform="translate(48.74500274658203,90.35876846313477)"><g class="iconsvg-imagesvg" transform="translate(0,0)"><g><rect fill="#adadad" fill-opacity="0" stroke-width="2" x="0" y="0" width="60.00000000000001" height="69.28246460820768" class="image-rect"></rect> <svg x="0" y="0" width="60.00000000000001" height="69.28246460820768" filtersec="colorsb9227616963" class="image-svg-svg primary" style="overflow: visible;"><svg version="1.1" id="图层_1" xmlns="http://www.w3.org/2000/svg" xmlns:xlink="http://www.w3.org/1999/xlink" x="0px" y="0px" viewBox="2.1600000858306885 1.9500000476837158 102.83999633789062 118.75" enable-background="new 0 0 107 123" xml:space="preserve">
<polygon fill="#ADADAD" points="53.58,1.95 8.93,27.74 27.21,38.29 53.58,23.07 79.95,38.29 98.24,27.74 "></polygon>
<polygon fill="#ADADAD" points="27.5,84.52 27.5,105.65 53.58,120.7 79.66,105.65 79.66,84.52 53.58,99.59 "></polygon>
<polygon fill="#0761AA" points="53.58,61.33 2.16,31.64 2.16,91.02 20.45,101.57 20.45,63.32 53.58,82.44 86.72,63.32 86.71,101.57 
	105,91.02 105,31.64 "></polygon>
</svg></svg> <!----></g></g> <g transform="translate(67.00000381469727,15.301231384277344)"><g data-gra="path-name" fill-rule="" class="tp-name iconsvg-namesvg"><g transform="scale(1)"><g><path d="M30.66-36.68L40.71-36.68 40.71 0.71 31.73 0.71 31.73-20.1 25.61-2.76 18.62-2.76 12.19-20.92 12.19 0.71 3.21 0.71 3.21-36.68 13.57-36.68 22.09-12.6 30.66-36.68ZM77.6 0.61L68.57 0.61 66.58-6.99 56.12-6.99 54.08 0.61 45.05 0.61 55.77-36.68 66.89-36.68 77.6 0.61ZM61.38-27.19L58.11-14.8 64.54-14.8 61.38-27.19ZM112.09-3.06Q109.13-0.71 106.2 0.28 103.27 1.28 99.39 1.28L99.39 1.28Q93.78 1.28 89.54-1.02 85.31-3.32 83.04-7.6 80.77-11.89 80.77-17.7L80.77-17.7Q80.77-23.72 83.01-28.19 85.26-32.65 89.49-35.03 93.72-37.4 99.49-37.4L99.49-37.4Q103.67-37.4 106.94-36.1 110.2-34.8 112.4-32.4L112.4-32.4 107.5-26.63Q105.31-28.47 103.49-29.41 101.68-30.36 99.85-30.36L99.85-30.36Q97.4-30.36 95.33-28.88 93.27-27.4 92.02-24.57 90.77-21.73 90.77-17.91L90.77-17.91Q90.77-14.13 91.99-11.38 93.21-8.62 95.26-7.19 97.3-5.77 99.64-5.77L99.64-5.77Q101.53-5.77 103.44-6.81 105.36-7.86 107.55-9.9L107.55-9.9 112.09-3.06ZM148.06 0.51L137.96 0.51 129.64-14.39 126.17-9.69 126.17 0.71 116.68 0.71 116.68-36.79 126.17-36.79 126.17-22.55 136.48-36.68 146.02-36.68 135.05-21.79 148.06 0.51ZM149.13-37.09L178.72-37.09 178.72-28.52 168.67-28.52 168.67 0.51 159.18 0.51 159.18-28.52 149.13-28.52 149.13-37.09Z" transform="translate(-3.2100000381469727, 37.400001525878906)"></path></g> <!----> <!----> <!----> <!----> <!----> <!----> <!----></g></g> <!----></g></g><defs v-gra="od"></defs></svg>